<svg width="80" height="80" viewBox="0 0 80 80" fill="none" xmlns="http://www.w3.org/2000/svg">
  <!-- Golden arc -->
  <path d="M40 10 C 20 10, 10 20, 10 40 C 10 60, 20 70, 40 70 C 60 70, 70 60, 70 40 C 70 20, 60 10, 40 10" 
        stroke="#daa429" 
        stroke-width="8" 
        fill="none" 
        stroke-linecap="round"/>
  
  <!-- Dark brown bird body -->
  <path d="M25 35 C 25 25, 35 20, 45 25 C 50 30, 52 40, 50 50 C 48 55, 45 58, 40 58 C 35 58, 32 55, 30 50 C 28 45, 25 40, 25 35 Z" 
        fill="#4d2917"/>
  
  <!-- Golden bird head and beak -->
  <path d="M50 25 C 55 20, 60 25, 58 30 C 56 35, 52 38, 50 35 C 48 32, 48 28, 50 25 Z" 
        fill="#daa429"/>
</svg>
