<svg width="64" height="64" viewBox="0 0 64 64" fill="none" xmlns="http://www.w3.org/2000/svg">
  <defs>
    <!-- Main blue gradient -->
    <linearGradient id="blueGradient" x1="0%" y1="0%" x2="100%" y2="100%">
      <stop offset="0%" style="stop-color:#1e40af;stop-opacity:1" />
      <stop offset="50%" style="stop-color:#2563eb;stop-opacity:1" />
      <stop offset="100%" style="stop-color:#3b82f6;stop-opacity:1" />
    </linearGradient>
    
    <!-- White gradient -->
    <linearGradient id="whiteGradient" x1="0%" y1="0%" x2="100%" y2="100%">
      <stop offset="0%" style="stop-color:#ffffff;stop-opacity:1" />
      <stop offset="100%" style="stop-color:#f0f9ff;stop-opacity:1" />
    </linearGradient>
    
    <!-- Accent blue -->
    <linearGradient id="accentBlue" x1="0%" y1="0%" x2="100%" y2="100%">
      <stop offset="0%" style="stop-color:#60a5fa;stop-opacity:1" />
      <stop offset="100%" style="stop-color:#93c5fd;stop-opacity:1" />
    </linearGradient>
  </defs>
  
  <!-- Background -->
  <rect width="64" height="64" rx="16" fill="url(#blueGradient)"/>
  
  <!-- Main AI symbol - hexagonal pattern -->
  <g fill="url(#whiteGradient)">
    <!-- Central hexagon -->
    <polygon points="32,16 38,20 38,28 32,32 26,28 26,20" opacity="0.95"/>
    
    <!-- Corner hexagons -->
    <polygon points="16,16 22,20 22,28 16,32 10,28 10,20" opacity="0.8"/>
    <polygon points="48,16 54,20 54,28 48,32 42,28 42,20" opacity="0.8"/>
    <polygon points="16,32 22,36 22,44 16,48 10,44 10,36" opacity="0.8"/>
    <polygon points="48,32 54,36 54,44 48,48 42,44 42,36" opacity="0.8"/>
    
    <!-- Connection lines -->
    <path d="M32 16 L16 16" stroke="url(#whiteGradient)" stroke-width="2" opacity="0.7"/>
    <path d="M32 16 L48 16" stroke="url(#whiteGradient)" stroke-width="2" opacity="0.7"/>
    <path d="M32 32 L16 32" stroke="url(#whiteGradient)" stroke-width="2" opacity="0.7"/>
    <path d="M32 32 L48 32" stroke="url(#whiteGradient)" stroke-width="2" opacity="0.7"/>
  </g>
  
  <!-- Education elements -->
  <g fill="url(#whiteGradient)" opacity="0.9">
    <!-- Modern book design -->
    <rect x="20" y="48" width="8" height="6" rx="1"/>
    <rect x="21" y="49" width="6" height="4" fill="url(#accentBlue)" opacity="0.6"/>
    
    <!-- Lightbulb for innovation -->
    <circle cx="44" cy="20" r="3" opacity="0.8"/>
    <rect x="43" y="23" width="2" height="2" rx="0.5" opacity="0.8"/>
  </g>
  
  <!-- Geometric accent pattern -->
  <g fill="url(#whiteGradient)" opacity="0.4">
    <circle cx="12" cy="12" r="1"/>
    <circle cx="52" cy="12" r="1"/>
    <circle cx="12" cy="52" r="1"/>
    <circle cx="52" cy="52" r="1"/>
    <circle cx="32" cy="8" r="0.5"/>
    <circle cx="32" cy="56" r="0.5"/>
    <circle cx="8" cy="32" r="0.5"/>
    <circle cx="56" cy="32" r="0.5"/>
  </g>
</svg>
