<svg width="64" height="64" viewBox="0 0 64 64" fill="none" xmlns="http://www.w3.org/2000/svg">
  <defs>
    <!-- Main gradient -->
    <linearGradient id="gradient" x1="0%" y1="0%" x2="100%" y2="100%">
      <stop offset="0%" style="stop-color:#1e40af;stop-opacity:1" />
      <stop offset="100%" style="stop-color:#3b82f6;stop-opacity:1" />
    </linearGradient>
    
    <!-- White gradient -->
    <linearGradient id="whiteGrad" x1="0%" y1="0%" x2="100%" y2="100%">
      <stop offset="0%" style="stop-color:#ffffff;stop-opacity:1" />
      <stop offset="100%" style="stop-color:#f8fafc;stop-opacity:1" />
    </linearGradient>
  </defs>
  
  <!-- Background circle -->
  <circle cx="32" cy="32" r="30" fill="url(#gradient)"/>
  
  <!-- AI Brain symbol -->
  <g fill="url(#whiteGrad)">
    <!-- Main brain shape -->
    <path d="M32 12 C20 12, 12 20, 12 32 C12 44, 20 52, 32 52 C44 52, 52 44, 52 32 C52 20, 44 12, 32 12 Z M32 16 C40 16, 46 22, 46 30 C46 38, 40 44, 32 44 C24 44, 18 38, 18 30 C18 22, 24 16, 32 16 Z" opacity="0.9"/>
    
    <!-- Neural network pattern -->
    <circle cx="32" cy="32" r="3"/>
    <circle cx="24" cy="24" r="2"/>
    <circle cx="40" cy="24" r="2"/>
    <circle cx="24" cy="40" r="2"/>
    <circle cx="40" cy="40" r="2"/>
    
    <!-- Connection lines -->
    <path d="M32 32 L24 24" stroke="url(#whiteGrad)" stroke-width="1.5" opacity="0.8"/>
    <path d="M32 32 L40 24" stroke="url(#whiteGrad)" stroke-width="1.5" opacity="0.8"/>
    <path d="M32 32 L24 40" stroke="url(#whiteGrad)" stroke-width="1.5" opacity="0.8"/>
    <path d="M32 32 L40 40" stroke="url(#whiteGrad)" stroke-width="1.5" opacity="0.8"/>
  </g>
  
  <!-- Education symbol -->
  <g fill="url(#whiteGrad)" opacity="0.8">
    <!-- Book -->
    <rect x="14" y="48" width="6" height="4" rx="0.5"/>
    <rect x="15" y="49" width="4" height="2" fill="url(#gradient)" opacity="0.3"/>
    
    <!-- Graduation cap -->
    <path d="M44 46 L47 44 L50 46 L47 48 Z"/>
  </g>
</svg>
