<svg width="64" height="64" viewBox="0 0 64 64" fill="none" xmlns="http://www.w3.org/2000/svg">
  <defs>
    <!-- Main gradient for the background -->
    <linearGradient id="mainGradient" x1="0%" y1="0%" x2="100%" y2="100%">
      <stop offset="0%" style="stop-color:#1e40af;stop-opacity:1" />
      <stop offset="50%" style="stop-color:#2563eb;stop-opacity:1" />
      <stop offset="100%" style="stop-color:#3b82f6;stop-opacity:1" />
    </linearGradient>
    
    <!-- Accent gradient for highlights -->
    <linearGradient id="accentGradient" x1="0%" y1="0%" x2="100%" y2="100%">
      <stop offset="0%" style="stop-color:#ffffff;stop-opacity:1" />
      <stop offset="100%" style="stop-color:#f0f9ff;stop-opacity:1" />
    </linearGradient>
    
    <!-- Blue glow effect -->
    <radialGradient id="glowGradient" cx="50%" cy="50%" r="50%">
      <stop offset="0%" style="stop-color:#3b82f6;stop-opacity:0.3" />
      <stop offset="100%" style="stop-color:#1e40af;stop-opacity:0" />
    </radialGradient>
  </defs>
  
  <!-- Background circle with subtle glow -->
  <circle cx="32" cy="32" r="30" fill="url(#mainGradient)" stroke="url(#glowGradient)" stroke-width="2"/>
  
  <!-- Main AI Brain/Circuit pattern -->
  <g fill="url(#accentGradient)" opacity="0.95">
    <!-- Central neural network core -->
    <circle cx="32" cy="32" r="8" opacity="0.8"/>
    
    <!-- Neural network nodes -->
    <circle cx="20" cy="20" r="3"/>
    <circle cx="44" cy="20" r="3"/>
    <circle cx="20" cy="44" r="3"/>
    <circle cx="44" cy="44" r="3"/>
    <circle cx="32" cy="16" r="2.5"/>
    <circle cx="32" cy="48" r="2.5"/>
    <circle cx="16" cy="32" r="2.5"/>
    <circle cx="48" cy="32" r="2.5"/>
    
    <!-- Connection lines -->
    <path d="M32 32 L20 20" stroke="url(#accentGradient)" stroke-width="2" opacity="0.7"/>
    <path d="M32 32 L44 20" stroke="url(#accentGradient)" stroke-width="2" opacity="0.7"/>
    <path d="M32 32 L20 44" stroke="url(#accentGradient)" stroke-width="2" opacity="0.7"/>
    <path d="M32 32 L44 44" stroke="url(#accentGradient)" stroke-width="2" opacity="0.7"/>
    <path d="M32 32 L32 16" stroke="url(#accentGradient)" stroke-width="2" opacity="0.7"/>
    <path d="M32 32 L32 48" stroke="url(#accentGradient)" stroke-width="2" opacity="0.7"/>
    <path d="M32 32 L16 32" stroke="url(#accentGradient)" stroke-width="2" opacity="0.7"/>
    <path d="M32 32 L48 32" stroke="url(#accentGradient)" stroke-width="2" opacity="0.7"/>
  </g>
  
  <!-- Education elements -->
  <g fill="#ffffff" opacity="0.9">
    <!-- Modern book design -->
    <rect x="12" y="52" width="8" height="6" rx="1" fill="#ffffff" opacity="0.8"/>
    <rect x="13" y="53" width="6" height="4" fill="#3b82f6" opacity="0.6"/>
    
    <!-- Graduation cap -->
    <path d="M44 50 L48 48 L52 50 L48 52 Z" fill="#ffffff" opacity="0.8"/>
    <rect x="47" y="52" width="2" height="4" fill="#ffffff" opacity="0.8"/>
    
    <!-- Lightbulb for ideas/learning -->
    <circle cx="52" cy="20" r="3" fill="#ffffff" opacity="0.7"/>
    <rect x="51" y="23" width="2" height="2" rx="0.5" fill="#ffffff" opacity="0.7"/>
  </g>
  
  <!-- AI circuit pattern overlay -->
  <g fill="#ffffff" opacity="0.6">
    <!-- Small circuit elements -->
    <rect x="8" y="8" width="4" height="1" rx="0.5"/>
    <rect x="52" y="8" width="4" height="1" rx="0.5"/>
    <rect x="8" y="55" width="4" height="1" rx="0.5"/>
    <rect x="52" y="55" width="4" height="1" rx="0.5"/>
    
    <!-- Connection points -->
    <circle cx="10" cy="8.5" r="0.5"/>
    <circle cx="54" cy="8.5" r="0.5"/>
    <circle cx="10" cy="55.5" r="0.5"/>
    <circle cx="54" cy="55.5" r="0.5"/>
  </g>
  
  <!-- Subtle inner glow -->
  <circle cx="32" cy="32" r="28" fill="none" stroke="url(#glowGradient)" stroke-width="1" opacity="0.5"/>
  
  <!-- Modern geometric accent -->
  <g fill="#ffffff" opacity="0.3">
    <polygon points="32,6 36,10 32,14 28,10" />
    <polygon points="32,50 36,54 32,58 28,54" />
    <polygon points="6,32 10,28 14,32 10,36" />
    <polygon points="50,32 54,28 58,32 54,36" />
  </g>
</svg>